<mxfile host="Electron" modified="2025-03-20T09:12:27.025Z" agent="Mozilla/5.0 (X11; Linux x86_64) AppleWebKit/537.36 (KHTML, like Gecko) draw.io/22.1.2 Chrome/114.0.5735.289 Electron/25.9.4 Safari/537.36" etag="riSB2qKI6EqPaZLdvJQW" version="22.1.2" type="device">
  <diagram name="Page-1" id="jHOTtQWDINjEp1J0P8Xb">
    <mxGraphModel dx="1195" dy="1978" grid="1" gridSize="10" guides="1" tooltips="1" connect="1" arrows="1" fold="1" page="1" pageScale="1" pageWidth="827" pageHeight="1169" math="0" shadow="0">
      <root>
        <mxCell id="0" />
        <mxCell id="1" parent="0" />
        <mxCell id="_AU6K7st_uVQFZbXDByO-8" style="edgeStyle=orthogonalEdgeStyle;rounded=0;orthogonalLoop=1;jettySize=auto;html=1;entryX=1;entryY=0.5;entryDx=0;entryDy=0;" parent="1" source="_AU6K7st_uVQFZbXDByO-1" target="_AU6K7st_uVQFZbXDByO-5" edge="1">
          <mxGeometry relative="1" as="geometry" />
        </mxCell>
        <mxCell id="_AU6K7st_uVQFZbXDByO-1" value="&lt;b&gt;Connection ou Inscription&lt;br&gt;&lt;/b&gt;&lt;ul&gt;&lt;li style=&quot;text-align: left;&quot;&gt;/auth/login&lt;/li&gt;&lt;li style=&quot;text-align: left;&quot;&gt;/auth/regsiter&lt;/li&gt;&lt;/ul&gt;" style="rounded=0;whiteSpace=wrap;html=1;fillColor=#dae8fc;strokeColor=#6c8ebf;" parent="1" vertex="1">
          <mxGeometry x="469" y="180" width="161" height="80" as="geometry" />
        </mxCell>
        <mxCell id="_AU6K7st_uVQFZbXDByO-3" style="edgeStyle=orthogonalEdgeStyle;rounded=0;orthogonalLoop=1;jettySize=auto;html=1;entryX=0.5;entryY=0;entryDx=0;entryDy=0;" parent="1" source="_AU6K7st_uVQFZbXDByO-2" target="_AU6K7st_uVQFZbXDByO-1" edge="1">
          <mxGeometry relative="1" as="geometry">
            <Array as="points">
              <mxPoint x="550" y="85" />
              <mxPoint x="550" y="180" />
            </Array>
          </mxGeometry>
        </mxCell>
        <mxCell id="_AU6K7st_uVQFZbXDByO-4" value="non" style="edgeLabel;html=1;align=center;verticalAlign=middle;resizable=0;points=[];" parent="_AU6K7st_uVQFZbXDByO-3" vertex="1" connectable="0">
          <mxGeometry x="-0.7806" relative="1" as="geometry">
            <mxPoint as="offset" />
          </mxGeometry>
        </mxCell>
        <mxCell id="_AU6K7st_uVQFZbXDByO-6" style="edgeStyle=orthogonalEdgeStyle;rounded=0;orthogonalLoop=1;jettySize=auto;html=1;" parent="1" source="_AU6K7st_uVQFZbXDByO-2" target="_AU6K7st_uVQFZbXDByO-5" edge="1">
          <mxGeometry relative="1" as="geometry" />
        </mxCell>
        <mxCell id="_AU6K7st_uVQFZbXDByO-7" value="oui" style="edgeLabel;html=1;align=center;verticalAlign=middle;resizable=0;points=[];" parent="_AU6K7st_uVQFZbXDByO-6" vertex="1" connectable="0">
          <mxGeometry x="-0.175" y="1" relative="1" as="geometry">
            <mxPoint as="offset" />
          </mxGeometry>
        </mxCell>
        <mxCell id="_AU6K7st_uVQFZbXDByO-2" value="User connecté ?" style="rhombus;whiteSpace=wrap;html=1;fillColor=#fff2cc;strokeColor=#d6b656;" parent="1" vertex="1">
          <mxGeometry x="359" y="30" width="110" height="110" as="geometry" />
        </mxCell>
        <mxCell id="_AU6K7st_uVQFZbXDByO-12" style="edgeStyle=orthogonalEdgeStyle;rounded=0;orthogonalLoop=1;jettySize=auto;html=1;" parent="1" source="_AU6K7st_uVQFZbXDByO-5" target="_AU6K7st_uVQFZbXDByO-11" edge="1">
          <mxGeometry relative="1" as="geometry" />
        </mxCell>
        <mxCell id="_AU6K7st_uVQFZbXDByO-16" style="edgeStyle=orthogonalEdgeStyle;rounded=0;orthogonalLoop=1;jettySize=auto;html=1;" parent="1" source="_AU6K7st_uVQFZbXDByO-5" target="_AU6K7st_uVQFZbXDByO-15" edge="1">
          <mxGeometry relative="1" as="geometry">
            <Array as="points">
              <mxPoint x="550" y="340" />
            </Array>
          </mxGeometry>
        </mxCell>
        <mxCell id="_AU6K7st_uVQFZbXDByO-28" style="edgeStyle=orthogonalEdgeStyle;rounded=0;orthogonalLoop=1;jettySize=auto;html=1;entryX=1;entryY=0.5;entryDx=0;entryDy=0;" parent="1" source="_AU6K7st_uVQFZbXDByO-5" target="_AU6K7st_uVQFZbXDByO-27" edge="1">
          <mxGeometry relative="1" as="geometry" />
        </mxCell>
        <mxCell id="_AU6K7st_uVQFZbXDByO-34" value="click sur booster" style="edgeLabel;html=1;align=center;verticalAlign=middle;resizable=0;points=[];" parent="_AU6K7st_uVQFZbXDByO-28" vertex="1" connectable="0">
          <mxGeometry x="-0.7683" y="1" relative="1" as="geometry">
            <mxPoint x="-35" y="-71" as="offset" />
          </mxGeometry>
        </mxCell>
        <mxCell id="rAawY12WHn6F68koOuxc-1" style="edgeStyle=orthogonalEdgeStyle;rounded=0;orthogonalLoop=1;jettySize=auto;html=1;" edge="1" parent="1" source="_AU6K7st_uVQFZbXDByO-5" target="_AU6K7st_uVQFZbXDByO-13">
          <mxGeometry relative="1" as="geometry" />
        </mxCell>
        <mxCell id="_AU6K7st_uVQFZbXDByO-5" value="&lt;b&gt;Accueil choix booster&lt;br&gt;&lt;/b&gt;&lt;ul&gt;&lt;li style=&quot;text-align: left;&quot;&gt;/&lt;/li&gt;&lt;/ul&gt;" style="rounded=0;whiteSpace=wrap;html=1;fillColor=#dae8fc;strokeColor=#6c8ebf;" parent="1" vertex="1">
          <mxGeometry x="346" y="300" width="136" height="60" as="geometry" />
        </mxCell>
        <mxCell id="_AU6K7st_uVQFZbXDByO-10" style="edgeStyle=orthogonalEdgeStyle;rounded=0;orthogonalLoop=1;jettySize=auto;html=1;entryX=0.5;entryY=0;entryDx=0;entryDy=0;" parent="1" source="_AU6K7st_uVQFZbXDByO-9" target="_AU6K7st_uVQFZbXDByO-2" edge="1">
          <mxGeometry relative="1" as="geometry" />
        </mxCell>
        <mxCell id="_AU6K7st_uVQFZbXDByO-9" value="" style="ellipse;whiteSpace=wrap;html=1;aspect=fixed;fillColor=#d5e8d4;strokeColor=#82b366;" parent="1" vertex="1">
          <mxGeometry x="404" y="-30" width="20" height="20" as="geometry" />
        </mxCell>
        <mxCell id="_AU6K7st_uVQFZbXDByO-25" value="" style="edgeStyle=orthogonalEdgeStyle;rounded=0;orthogonalLoop=1;jettySize=auto;html=1;" parent="1" source="_AU6K7st_uVQFZbXDByO-11" target="_AU6K7st_uVQFZbXDByO-24" edge="1">
          <mxGeometry relative="1" as="geometry" />
        </mxCell>
        <mxCell id="_AU6K7st_uVQFZbXDByO-30" style="edgeStyle=orthogonalEdgeStyle;rounded=0;orthogonalLoop=1;jettySize=auto;html=1;entryX=1;entryY=0.5;entryDx=0;entryDy=0;" parent="1" source="_AU6K7st_uVQFZbXDByO-11" target="_AU6K7st_uVQFZbXDByO-29" edge="1">
          <mxGeometry relative="1" as="geometry" />
        </mxCell>
        <mxCell id="_AU6K7st_uVQFZbXDByO-11" value="&lt;b&gt;Paramètres compte&lt;/b&gt;&lt;br&gt;&lt;ul style=&quot;&quot;&gt;&lt;li style=&quot;text-align: left;&quot;&gt;/account&lt;/li&gt;&lt;/ul&gt;" style="rounded=0;whiteSpace=wrap;html=1;fillColor=#dae8fc;strokeColor=#6c8ebf;" parent="1" vertex="1">
          <mxGeometry x="220" y="420" width="120" height="70" as="geometry" />
        </mxCell>
        <mxCell id="_AU6K7st_uVQFZbXDByO-18" style="edgeStyle=orthogonalEdgeStyle;rounded=0;orthogonalLoop=1;jettySize=auto;html=1;" parent="1" source="_AU6K7st_uVQFZbXDByO-13" target="_AU6K7st_uVQFZbXDByO-17" edge="1">
          <mxGeometry relative="1" as="geometry" />
        </mxCell>
        <mxCell id="_AU6K7st_uVQFZbXDByO-20" value="click sur une carte" style="edgeLabel;html=1;align=center;verticalAlign=middle;resizable=0;points=[];" parent="_AU6K7st_uVQFZbXDByO-18" vertex="1" connectable="0">
          <mxGeometry x="-0.4328" y="-1" relative="1" as="geometry">
            <mxPoint x="47" y="6" as="offset" />
          </mxGeometry>
        </mxCell>
        <mxCell id="_AU6K7st_uVQFZbXDByO-13" value="&lt;b&gt;Voir collection avec filtres&lt;/b&gt;&lt;br&gt;&lt;ul style=&quot;&quot;&gt;&lt;li style=&quot;text-align: left;&quot;&gt;/collection&lt;/li&gt;&lt;/ul&gt;" style="rounded=0;whiteSpace=wrap;html=1;fillColor=#dae8fc;strokeColor=#6c8ebf;" parent="1" vertex="1">
          <mxGeometry x="346" y="420" width="136" height="80" as="geometry" />
        </mxCell>
        <mxCell id="_AU6K7st_uVQFZbXDByO-15" value="Rechercher des users" style="rounded=1;whiteSpace=wrap;html=1;fillColor=#f5f5f5;fontColor=#333333;strokeColor=#666666;" parent="1" vertex="1">
          <mxGeometry x="500" y="370" width="120" height="60" as="geometry" />
        </mxCell>
        <mxCell id="rAawY12WHn6F68koOuxc-2" style="edgeStyle=orthogonalEdgeStyle;rounded=0;orthogonalLoop=1;jettySize=auto;html=1;" edge="1" parent="1" source="_AU6K7st_uVQFZbXDByO-17" target="_AU6K7st_uVQFZbXDByO-22">
          <mxGeometry relative="1" as="geometry" />
        </mxCell>
        <mxCell id="rAawY12WHn6F68koOuxc-3" style="edgeStyle=orthogonalEdgeStyle;rounded=0;orthogonalLoop=1;jettySize=auto;html=1;" edge="1" parent="1" source="_AU6K7st_uVQFZbXDByO-17" target="_AU6K7st_uVQFZbXDByO-19">
          <mxGeometry relative="1" as="geometry">
            <Array as="points">
              <mxPoint x="414" y="639" />
              <mxPoint x="500" y="639" />
            </Array>
          </mxGeometry>
        </mxCell>
        <mxCell id="_AU6K7st_uVQFZbXDByO-17" value="&lt;b&gt;Voir stats carte&lt;/b&gt;&lt;br&gt;&lt;ul style=&quot;&quot;&gt;&lt;li style=&quot;text-align: left; border-color: var(--border-color);&quot;&gt;/card/:cardId&lt;/li&gt;&lt;/ul&gt;" style="rounded=0;whiteSpace=wrap;html=1;fillColor=#dae8fc;strokeColor=#6c8ebf;" parent="1" vertex="1">
          <mxGeometry x="354" y="551" width="120" height="68" as="geometry" />
        </mxCell>
        <mxCell id="_AU6K7st_uVQFZbXDByO-19" value="Ajouter comme recherchée" style="rounded=1;whiteSpace=wrap;html=1;fillColor=#f5f5f5;fontColor=#333333;strokeColor=#666666;" parent="1" vertex="1">
          <mxGeometry x="440" y="660" width="120" height="60" as="geometry" />
        </mxCell>
        <mxCell id="_AU6K7st_uVQFZbXDByO-22" value="Parler avec le pokémon" style="rounded=1;whiteSpace=wrap;html=1;fillColor=#f5f5f5;strokeColor=#666666;fontColor=#333333;" parent="1" vertex="1">
          <mxGeometry x="284" y="660" width="120" height="60" as="geometry" />
        </mxCell>
        <mxCell id="_AU6K7st_uVQFZbXDByO-24" value="Modification du pseudo" style="whiteSpace=wrap;html=1;rounded=1;fillColor=#f5f5f5;fontColor=#333333;strokeColor=#666666;" parent="1" vertex="1">
          <mxGeometry x="60" y="390" width="120" height="60" as="geometry" />
        </mxCell>
        <mxCell id="_AU6K7st_uVQFZbXDByO-27" value="Ouverture booster" style="whiteSpace=wrap;html=1;rounded=1;fillColor=#f5f5f5;fontColor=#333333;strokeColor=#666666;" parent="1" vertex="1">
          <mxGeometry x="130" y="240" width="120" height="60" as="geometry" />
        </mxCell>
        <mxCell id="_AU6K7st_uVQFZbXDByO-29" value="Déconnexion" style="whiteSpace=wrap;html=1;rounded=1;fillColor=#f5f5f5;fontColor=#333333;strokeColor=#666666;" parent="1" vertex="1">
          <mxGeometry x="60" y="460" width="120" height="60" as="geometry" />
        </mxCell>
        <mxCell id="_AU6K7st_uVQFZbXDByO-32" value="&lt;h1&gt;&lt;font style=&quot;font-size: 15px;&quot;&gt;Légende&lt;/font&gt;&lt;/h1&gt;&lt;p&gt;&lt;/p&gt;&lt;ul&gt;&lt;li&gt;&lt;font color=&quot;#3333ff&quot;&gt;Bleu = page&lt;/font&gt;&lt;/li&gt;&lt;li&gt;&lt;font color=&quot;#666666&quot;&gt;Gris = action&lt;/font&gt;&lt;/li&gt;&lt;/ul&gt;&lt;p&gt;&lt;/p&gt;" style="text;html=1;strokeColor=none;fillColor=none;spacing=5;spacingTop=-20;whiteSpace=wrap;overflow=hidden;rounded=0;" parent="1" vertex="1">
          <mxGeometry x="70" y="30" width="190" height="120" as="geometry" />
        </mxCell>
      </root>
    </mxGraphModel>
  </diagram>
</mxfile>
